<?xml version="1.0" encoding="UTF-8" standalone="no" ?>
<!DOCTYPE svg PUBLIC "-//W3C//DTD SVG 1.1//EN" "http://www.w3.org/Graphics/SVG/1.1/DTD/svg11.dtd">
<svg xmlns="http://www.w3.org/2000/svg" xmlns:xlink="http://www.w3.org/1999/xlink" version="1.1" width="500" height="500" viewBox="0 0 500 500" xml:space="preserve">
<desc>Created with Fabric.js 5.3.0</desc>
<defs>
</defs>
<g transform="matrix(1 0 0 1 250.1213491269 250.1213336414)" id="V2NW6Y4vlM8-eFRaNGvuu"  >
<path style="stroke: rgb(251,226,3); stroke-width: 0; stroke-dasharray: none; stroke-linecap: butt; stroke-dashoffset: 0; stroke-linejoin: miter; stroke-miterlimit: 4; fill: rgb(255,255,255); fill-rule: nonzero; opacity: 1;" vector-effect="non-scaling-stroke"  transform=" translate(-249.950675, -250.047575)" d="M 249.82933 2.43887 L 338.51964 91.12917999999999 L 429.19066999999995 0.4581499999999892 L 499.90135 71.16882999999999 L 409.23032 161.83986 L 497.31671 249.92624999999998 L 408.92837 338.31458999999995 L 499.54009999999994 428.9263199999999 L 428.8294199999999 499.63699999999994 L 338.21768999999995 409.02527 L 249.82933999999995 497.41362 L 161.79139999999995 409.37568 L 71.07192999999995 500.09515 L 0.36124999999995566 429.38446999999996 L 91.08071999999996 338.66499999999996 L 2.3419599999999576 249.92623999999995 L 90.77875999999996 161.48943999999995 L -4.263256414560601e-14 70.71067999999994 L 70.71067999999995 -5.684341886080802e-14 L 161.48943999999995 90.77875999999995 z M 179.11865 249.92624 L 249.82933 320.63692000000003 L 320.54001 249.92624000000004 L 249.82933 179.21556000000004 z" stroke-linecap="round" />
</g>
</svg>